<?xml version="1.0" encoding="utf-8"?>
<!-- Generator: Adobe Illustrator 24.3.0, SVG Export Plug-In . SVG Version: 6.00 Build 0)  -->
<svg version="1.1" id="Ebene_1" xmlns="http://www.w3.org/2000/svg" xmlns:xlink="http://www.w3.org/1999/xlink" x="0px" y="0px"
	 viewBox="0 0 500 500" style="enable-background:new 0 0 500 500;" xml:space="preserve">
<style type="text/css">
	.st0{enable-background:new    ;}
	.st1{fill:#70150B;}
</style>
<g>
	<g class="st0">
		<path class="st1" d="M420.58,258h51.81l-82.27,242h-55.95L252.4,258.96l-0.33-0.96h51.81l45.52,144.01
			c2.54,8.5,5.16,18.4,7.86,29.71c2.7,11.31,4.39,19.18,5.05,23.59c1.21-10.15,5.35-27.92,12.41-53.3L420.58,258z"/>
	</g>
	<g class="st0">
		<path class="st1" d="M137.5,259L75.23,56h-1.59C75.88,97.3,77,124.85,77,138.65V259H28V0h74.74l61.28,198h1.06l65-198H304
			l-0.12,258H252l0.54-121.08c0-5.76,0.09-12.41,0.26-19.94c0.18-7.53,0.97-27.52,2.38-59.98h-1.59l-66.51,202H137.5z"/>
	</g>
</g>
</svg>
