<?xml version="1.0" standalone="no"?>
<!DOCTYPE svg PUBLIC "-//W3C//DTD SVG 20010904//EN"
 "http://www.w3.org/TR/2001/REC-SVG-20010904/DTD/svg10.dtd">
<svg version="1.0" xmlns="http://www.w3.org/2000/svg"
 width="700.000000pt" height="700.000000pt" viewBox="0 0 700.000000 700.000000"
 preserveAspectRatio="xMidYMid meet">
<metadata>
Created by potrace 1.11, written by Peter Selinger 2001-2013
</metadata>
<g transform="translate(0.000000,700.000000) scale(0.100000,-0.100000)"
fill="#000000" stroke="none">
<path d="M392 5188 l3 -1813 340 0 340 0 0 955 c0 824 -5 1160 -20 1410 -1 30
-6 116 -9 190 -4 74 -9 170 -11 213 -8 119 13 101 55 -48 12 -44 26 -89 30
-100 5 -11 81 -258 170 -550 88 -291 165 -541 170 -555 4 -14 22 -70 39 -125
17 -55 108 -352 202 -660 94 -308 183 -598 198 -645 l27 -85 343 0 c224 -1
345 3 350 10 4 5 77 219 161 475 84 256 170 517 190 580 21 63 147 446 280
850 133 404 254 773 269 820 44 131 54 119 47 -56 -7 -172 -15 -379 -22 -509
-2 -49 -7 -556 -10 -1125 l-5 -1035 56 -165 c53 -153 374 -1096 415 -1220 10
-30 95 -280 188 -555 93 -275 204 -603 247 -730 42 -126 79 -237 82 -245 4 -8
41 -116 83 -240 l76 -225 394 0 393 0 53 155 c99 291 223 655 359 1055 75 220
163 479 195 575 33 96 104 306 159 465 54 160 124 365 154 455 31 91 94 279
141 417 47 139 86 255 86 258 0 3 -163 4 -362 3 l-361 -3 -18 -55 c-10 -30
-48 -149 -84 -265 -37 -115 -88 -277 -115 -360 -42 -130 -111 -350 -115 -365
-1 -3 -4 -12 -8 -20 -3 -8 -13 -37 -21 -65 -8 -27 -32 -106 -54 -175 -110
-343 -234 -735 -237 -750 -2 -9 -12 -48 -24 -86 -22 -75 -81 -313 -102 -409
-7 -33 -13 -62 -14 -65 -1 -3 -5 -31 -10 -64 -8 -62 -19 -60 -29 7 -6 40 -35
161 -68 291 -11 43 -21 86 -23 95 -13 66 -59 225 -132 456 -46 148 -99 317
-118 375 -18 58 -72 229 -120 380 -48 151 -100 316 -115 365 -16 50 -45 142
-65 205 -21 63 -41 129 -45 145 -5 17 -19 64 -33 105 -14 41 -37 113 -53 160
l-28 85 0 1810 -1 1810 -517 3 -517 2 -161 -492 c-89 -271 -188 -572 -220
-668 -32 -96 -135 -411 -230 -700 -279 -851 -297 -904 -307 -907 -5 -2 -22 38
-37 89 -31 105 -46 153 -109 358 -25 80 -84 271 -132 425 -48 154 -118 381
-157 505 -38 124 -78 252 -88 285 -10 33 -36 119 -58 190 -22 72 -90 292 -152
490 -61 198 -115 375 -121 393 l-11 32 -524 0 -524 0 2 -1812z"/>
</g>
</svg>
